<svg xmlns="http://www.w3.org/2000/svg" viewBox="0 0 1920 1080"><g transform="
          rotate(345 960 540) 
          translate(-409.0066302124742 -230.06622949451673)
          scale(1.426048573137994)
        "><rect width="1920" height="1080" fill="rgb(87, 54, 209)"></rect><g transform="translate(0, 0)"><path fill="rgb(70, 44, 174)" fill-opacity="1" d="M0,211.766L80,210.045C160,208.324,320,204.882,480,204.349C640,203.815,800,206.19,960,206.457C1120,206.724,1280,204.883,1440,181.91C1600,158.936,1760,114.83,1840,92.777L1920,70.724L1920,1080L1840,1080C1760,1080,1600,1080,1440,1080C1280,1080,1120,1080,960,1080C800,1080,640,1080,480,1080C320,1080,160,1080,80,1080L0,1080Z"></path></g><g transform="translate(0, 216)"><path fill="rgb(54, 34, 140)" fill-opacity="1" d="M0,180.693L80,151.13C160,121.567,320,62.441,480,59.088C640,55.735,800,108.155,960,121.211C1120,134.268,1280,107.962,1440,83.613C1600,59.265,1760,36.873,1840,25.677L1920,14.482L1920,864L1840,864C1760,864,1600,864,1440,864C1280,864,1120,864,960,864C800,864,640,864,480,864C320,864,160,864,80,864L0,864Z"></path></g><g transform="translate(0, 432)"><path fill="rgb(37, 24, 105)" fill-opacity="1" d="M0,151.005L80,136.457C160,121.909,320,92.812,480,78.248C640,63.685,800,63.654,960,84.765C1120,105.875,1280,148.126,1440,170.818C1600,193.51,1760,196.643,1840,198.209L1920,199.776L1920,648L1840,648C1760,648,1600,648,1440,648C1280,648,1120,648,960,648C800,648,640,648,480,648C320,648,160,648,80,648L0,648Z"></path></g><g transform="translate(0, 648)"><path fill="rgb(21, 14, 71)" fill-opacity="1" d="M0,35.349L80,40.169C160,44.99,320,54.631,480,75.764C640,96.896,800,129.519,960,152.598C1120,175.676,1280,189.21,1440,180.309C1600,171.407,1760,140.071,1840,124.403L1920,108.735L1920,432L1840,432C1760,432,1600,432,1440,432C1280,432,1120,432,960,432C800,432,640,432,480,432C320,432,160,432,80,432L0,432Z"></path></g><g transform="translate(0, 864)"><path fill="rgb(4, 4, 36)" fill-opacity="1" d="M0,11.443L80,9.803C160,8.164,320,4.885,480,24.647C640,44.41,800,87.215,960,100.669C1120,114.124,1280,98.228,1440,81.706C1600,65.185,1760,48.037,1840,39.464L1920,30.89L1920,216L1840,216C1760,216,1600,216,1440,216C1280,216,1120,216,960,216C800,216,640,216,480,216C320,216,160,216,80,216L0,216Z"></path></g></g></svg>